<?xml version="1.0" encoding="UTF-8"?>
<svg id="Layer_1" xmlns="http://www.w3.org/2000/svg" version="1.1" viewBox="0 0 124.24 39.32">
  <!-- Generator: Adobe Illustrator 29.0.0, SVG Export Plug-In . SVG Version: 2.1.0 Build 186)  -->
  <defs>
    <style>
      .st0 {
        stroke-miterlimit: 10;
      }

      .st0, .st1 {
        fill: none;
        stroke: #fff;
        stroke-linecap: round;
        stroke-width: 1.5px;
      }

      .st1 {
        stroke-linejoin: round;
      }
    </style>
  </defs>
  <path class="st1" d="M5.45,6.29l-2.64,14.56s-1.96,10.89,11.4,14.47c0,0,14.38,6.81,49.36-14.55,0,0,31.15-18.89,45.02-15.06,0,0,14.21,2.64,12.94,15.06h-53.37"/>
  <line class="st1" x1="81.69" y1="20.79" x2="78.45" y2="35.17"/>
  <polyline class="st1" points="5.49 18.16 8.21 6.33 14.34 18.16 17.06 6.33"/>
  <polyline class="st1" points="17.16 18.16 19.79 6.33 25.83 6.33"/>
  <line class="st1" x1="24.69" y1="11.61" x2="18.69" y2="11.64"/>
  <line class="st1" x1="25.97" y1="18.16" x2="28.58" y2="6.33"/>
  <polyline class="st1" points="28.8 18.16 31.53 6.33 37.65 18.16 40.23 6.33"/>
  <line class="st1" x1="40.52" y1="18.16" x2="43.13" y2="6.33"/>
  <polyline class="st0" points="46.78 18.16 49.39 6.33 45.37 6.33"/>
  <line class="st0" x1="53.86" y1="6.33" x2="49.39" y2="6.33"/>
  <polyline class="st0" points="55.62 6.33 59.13 11.45 57.75 18.16"/>
  <line class="st0" x1="65.16" y1="6.33" x2="59.13" y2="11.45"/>
  <line class="st1" x1="4.94" y1="20.75" x2="59.13" y2="20.79"/>
  <path class="st0" d="M83.62,35.17l1-4.53,1.6-7.25s7.57-.6,5.66,4.59c0,0-.6,2.94-6.68,2.69"/>
  <line class="st0" x1="88.63" y1="30.4" x2="90.38" y2="35.17"/>
  <polyline class="st1" points="93.02 35.17 100.17 23.37 103.3 35.17"/>
  <line class="st1" x1="96.15" y1="30.75" x2="101.83" y2="30.75"/>
  <line class="st1" x1="105.4" y1="35.17" x2="108.02" y2="23.37"/>
  <polyline class="st1" points="108.91 35.17 111.15 23.37 118.07 35.19 120.65 23.36"/>
</svg>